<svg xmlns="http://www.w3.org/2000/svg" viewBox="0 0 20 20">
<path d=" M 4.991 3.867 C 5.783 3.221 6.692 2.741 7.658 2.437 L 7.658 2.437 C 7.376 2.779 7.114 3.18 6.884 3.646 C 6.254 3.703 5.622 3.774 4.991 3.867 Z  M 8.043 3.576 C 8.287 3.196 8.579 2.851 8.92 2.55 C 9.22 2.28 9.6 2.12 10 2.1 L 10 2.1 C 10.4 2.12 10.78 2.28 11.08 2.55 C 11.419 2.849 11.709 3.192 11.952 3.57 C 10.652 3.492 9.348 3.494 8.043 3.576 Z  M 13.113 3.641 C 12.884 3.177 12.623 2.777 12.342 2.437 L 12.342 2.437 C 13.302 2.739 14.205 3.214 14.993 3.854 C 14.367 3.762 13.74 3.693 13.113 3.641 Z  M 16.74 4.139 C 15.091 2.275 12.681 1.1 10 1.1 C 7.309 1.1 4.893 2.283 3.242 4.157 C 2.584 4.27 1.926 4.411 1.267 4.569 L 1.267 4.569 L 1.267 4.569 C 0.189 6.951 -0.207 9.281 0.102 11.585 L 0.102 11.585 C 0.273 12.858 0.66 14.124 1.267 15.385 L 1.267 15.385 L 1.267 15.385 L 1.267 15.385 C 1.906 15.542 2.544 15.682 3.178 15.796 L 3.178 15.796 C 4.833 17.707 7.276 18.92 10 18.92 C 12.7 18.92 15.123 17.729 16.775 15.844 C 16.851 15.831 16.926 15.816 17.001 15.801 C 17.603 15.678 18.203 15.54 18.802 15.385 C 20.414 11.939 20.384 8.301 18.802 4.569 C 18.115 4.403 17.428 4.256 16.74 4.139 Z  M 4.915 16.095 C 5.567 16.198 6.216 16.276 6.862 16.329 C 7.097 16.814 7.367 17.23 7.658 17.583 C 6.661 17.269 5.726 16.769 4.915 16.095 L 4.915 16.095 Z  M 8.03 16.424 C 9.348 16.505 10.657 16.51 11.957 16.441 C 11.714 16.823 11.421 17.169 11.08 17.47 C 10.78 17.74 10.4 17.9 10 17.92 L 10 17.92 C 9.6 17.9 9.22 17.74 8.92 17.47 C 8.573 17.164 8.277 16.812 8.03 16.424 L 8.03 16.424 Z  M 13.127 16.352 C 13.767 16.305 14.403 16.232 15.036 16.132 C 14.237 16.788 13.319 17.275 12.342 17.583 C 12.629 17.236 12.894 16.827 13.127 16.352 L 13.127 16.352 Z  M 1.021 10.613 C 1.009 10.429 1.002 10.245 1 10.06 C 1.02 8.47 1.36 6.9 1.98 5.43 L 1.98 5.43 C 4.63 4.82 7.33 4.52 10.05 4.51 C 12.75 4.51 15.44 4.82 18.08 5.43 C 18.67 6.92 18.98 8.51 19 10.11 C 18.99 11.63 18.68 13.14 18.09 14.53 C 17.455 14.686 16.815 14.824 16.172 14.942 L 16.172 14.942 L 10.437 9 L 8.423 11.13 L 4.437 7 L 1.021 10.613 L 1.021 10.613 L 1.021 10.613 Z " fill-rule="evenodd" fill="rgb(255,255,255)"/>
<path d=" M 17.5 8 L 16 8.866 L 14.5 9.732 L 14.5 8 L 14.5 6.268 L 16 7.134 L 17.5 8 Z " fill="rgb(255,255,255)"/>
</svg>