<svg xmlns="http://www.w3.org/2000/svg" viewBox="0 0 20 20">
<path d=" M 1.293 2.707 L 2.707 1.293 L 18.707 17.293 L 17.293 18.707 L 1.293 2.707 Z  M 5.611 7.025 C 4.139 7.216 3 8.476 3 10 L 3 10 L 3 10 C 3 11.656 4.344 13 6 13 C 7.524 13 8.784 11.861 8.975 10.389 L 14.586 16 L 2 16 C 1.45 16 1 15.55 1 15 L 1 5 C 1 4.45 1.45 4 2 4 L 2.586 4 L 5.611 7.025 Z  M 7 4 L 18 4 L 18 4 L 18 4 L 18 4 C 18.55 4 19 4.45 19 5 L 19 15 C 19 15.275 18.888 15.525 18.706 15.706 L 15.562 12.562 L 15.562 12.562 C 16.424 12.034 17 11.084 17 10 C 17 8.344 15.656 7 14 7 C 12.916 7 11.966 7.576 11.438 8.438 L 7 4 Z " fill-rule="evenodd" fill="rgb(255,255,255)"/>
</svg>