<svg xmlns="http://www.w3.org/2000/svg" viewBox="0 0 20 20">
<path d=" M 9.996 11.41 L 9.996 18 L 5 13 L 1 13 L 1 7 L 5 7 L 5 7 L 5 7 L 5 7 L 5.293 6.707 L 9.996 11.41 Z  M 9.996 6.996 L 9.996 2 L 7.499 4.499 L 9.996 6.996 Z  M 14.646 11.646 C 14.873 11.144 15 10.587 15 10 C 15 8.138 13.724 6.571 12 6.126 L 12 6.126 L 12 6.126 L 12 6.126 L 12 9 L 14.646 11.646 Z  M 12.351 13.766 C 12.237 13.807 12.119 13.843 12 13.874 L 12 13.414 L 12.351 13.766 Z  M 17.567 14.567 C 18.47 13.272 19 11.697 19 10 C 19 5.923 15.944 2.555 12 2.062 L 12 2.062 L 12 4.083 C 14.836 4.56 17 7.029 17 10 C 17 11.144 16.679 12.213 16.123 13.123 L 17.567 14.567 Z  M 15.319 16.733 C 14.338 17.364 13.211 17.787 12 17.938 L 12 15.917 C 12.663 15.805 13.29 15.585 13.86 15.275 L 15.319 16.733 Z  M 1.293 2.707 L 2.707 1.293 L 18.707 17.293 L 17.293 18.707 L 1.293 2.707 Z " fill-rule="evenodd" fill="rgb(255,255,255)"/>
</svg>